<mxfile host="Electron" agent="Mozilla/5.0 (Windows NT 10.0; Win64; x64) AppleWebKit/537.36 (KHTML, like Gecko) draw.io/24.7.17 Chrome/128.0.6613.36 Electron/32.0.1 Safari/537.36" version="24.7.17">
  <diagram name="Page-1" id="IRfoLoD9YuWxFBeTS77E">
    <mxGraphModel dx="1434" dy="956" grid="1" gridSize="10" guides="1" tooltips="1" connect="1" arrows="1" fold="1" page="1" pageScale="1" pageWidth="1169" pageHeight="827" math="0" shadow="0">
      <root>
        <mxCell id="0" />
        <mxCell id="1" parent="0" />
        <mxCell id="EIH9bf3S5vhwDd3wQUSE-1" value="Käyttäjän&lt;div&gt;toiminpide&lt;/div&gt;" style="shape=umlActor;verticalLabelPosition=bottom;verticalAlign=top;html=1;outlineConnect=0;" vertex="1" parent="1">
          <mxGeometry x="50" y="170" width="30" height="60" as="geometry" />
        </mxCell>
        <mxCell id="EIH9bf3S5vhwDd3wQUSE-2" value="" style="endArrow=classic;html=1;rounded=0;" edge="1" parent="1">
          <mxGeometry width="50" height="50" relative="1" as="geometry">
            <mxPoint x="140" y="199.5" as="sourcePoint" />
            <mxPoint x="200" y="199.5" as="targetPoint" />
            <Array as="points">
              <mxPoint x="170" y="199.5" />
              <mxPoint x="120" y="199.5" />
            </Array>
          </mxGeometry>
        </mxCell>
        <mxCell id="EIH9bf3S5vhwDd3wQUSE-3" value="Elementti&lt;div&gt;(element/widget&lt;/div&gt;" style="rounded=1;whiteSpace=wrap;html=1;fillColor=#FFFFFF;fontColor=#000000;strokeColor=#B09500;gradientColor=#FFFF33;" vertex="1" parent="1">
          <mxGeometry x="220" y="170" width="120" height="60" as="geometry" />
        </mxCell>
        <mxCell id="EIH9bf3S5vhwDd3wQUSE-5" value="Tapahtuma&lt;div&gt;(event&lt;/div&gt;" style="rounded=1;whiteSpace=wrap;html=1;fillColor=#FFFFFF;fontColor=#000000;strokeColor=#B09500;gradientColor=#FF9933;" vertex="1" parent="1">
          <mxGeometry x="400" y="170" width="120" height="60" as="geometry" />
        </mxCell>
        <mxCell id="EIH9bf3S5vhwDd3wQUSE-6" value="Signaali&lt;div&gt;(signal)&lt;/div&gt;" style="rounded=1;whiteSpace=wrap;html=1;gradientColor=#FF3333;" vertex="1" parent="1">
          <mxGeometry x="580" y="170" width="120" height="60" as="geometry" />
        </mxCell>
        <mxCell id="EIH9bf3S5vhwDd3wQUSE-7" value="Slotti&lt;div&gt;(slot)&lt;/div&gt;" style="rounded=1;whiteSpace=wrap;html=1;fillColor=#FFFFFF;fontColor=#000000;strokeColor=#B09500;gradientColor=#CCCCCC;" vertex="1" parent="1">
          <mxGeometry x="770" y="170" width="120" height="60" as="geometry" />
        </mxCell>
        <mxCell id="EIH9bf3S5vhwDd3wQUSE-9" value="" style="endArrow=classic;html=1;rounded=0;" edge="1" parent="1">
          <mxGeometry width="50" height="50" relative="1" as="geometry">
            <mxPoint x="350" y="200" as="sourcePoint" />
            <mxPoint x="390" y="200" as="targetPoint" />
            <Array as="points">
              <mxPoint x="390" y="200" />
            </Array>
          </mxGeometry>
        </mxCell>
        <mxCell id="EIH9bf3S5vhwDd3wQUSE-10" value="" style="endArrow=classic;html=1;rounded=0;" edge="1" parent="1">
          <mxGeometry width="50" height="50" relative="1" as="geometry">
            <mxPoint x="530" y="199.5" as="sourcePoint" />
            <mxPoint x="570" y="199.5" as="targetPoint" />
            <Array as="points">
              <mxPoint x="550" y="199.5" />
              <mxPoint x="570" y="199.5" />
            </Array>
          </mxGeometry>
        </mxCell>
        <mxCell id="EIH9bf3S5vhwDd3wQUSE-11" value="" style="endArrow=classic;html=1;rounded=0;" edge="1" parent="1">
          <mxGeometry width="50" height="50" relative="1" as="geometry">
            <mxPoint x="720" y="199.5" as="sourcePoint" />
            <mxPoint x="760" y="199.5" as="targetPoint" />
            <Array as="points">
              <mxPoint x="710" y="199.5" />
              <mxPoint x="760" y="199.5" />
            </Array>
          </mxGeometry>
        </mxCell>
        <mxCell id="EIH9bf3S5vhwDd3wQUSE-12" value="Painaa&lt;div&gt;Enter&lt;/div&gt;" style="text;html=1;align=center;verticalAlign=middle;whiteSpace=wrap;rounded=0;" vertex="1" parent="1">
          <mxGeometry x="30" y="280" width="60" height="30" as="geometry" />
        </mxCell>
        <mxCell id="EIH9bf3S5vhwDd3wQUSE-13" value="firstNameLineEdit" style="text;html=1;align=center;verticalAlign=middle;whiteSpace=wrap;rounded=0;" vertex="1" parent="1">
          <mxGeometry x="240" y="325" width="60" height="30" as="geometry" />
        </mxCell>
        <mxCell id="EIH9bf3S5vhwDd3wQUSE-14" value="editingFinished" style="text;html=1;align=center;verticalAlign=middle;whiteSpace=wrap;rounded=0;" vertex="1" parent="1">
          <mxGeometry x="430" y="325" width="60" height="30" as="geometry" />
        </mxCell>
        <mxCell id="EIH9bf3S5vhwDd3wQUSE-15" value="Painaa&lt;div&gt;Tab&lt;/div&gt;" style="text;html=1;align=center;verticalAlign=middle;whiteSpace=wrap;rounded=0;" vertex="1" parent="1">
          <mxGeometry x="30" y="320" width="60" height="30" as="geometry" />
        </mxCell>
        <mxCell id="EIH9bf3S5vhwDd3wQUSE-16" value="Poistuu&lt;div&gt;hiirellä&lt;/div&gt;" style="text;html=1;align=center;verticalAlign=middle;whiteSpace=wrap;rounded=0;" vertex="1" parent="1">
          <mxGeometry x="30" y="360" width="60" height="30" as="geometry" />
        </mxCell>
        <mxCell id="EIH9bf3S5vhwDd3wQUSE-17" value="connect()" style="text;html=1;align=center;verticalAlign=middle;whiteSpace=wrap;rounded=0;" vertex="1" parent="1">
          <mxGeometry x="610" y="320" width="60" height="30" as="geometry" />
        </mxCell>
        <mxCell id="EIH9bf3S5vhwDd3wQUSE-18" value="self.beatifyLineEdit()" style="text;html=1;align=center;verticalAlign=middle;whiteSpace=wrap;rounded=0;" vertex="1" parent="1">
          <mxGeometry x="800" y="325" width="60" height="30" as="geometry" />
        </mxCell>
        <mxCell id="EIH9bf3S5vhwDd3wQUSE-19" value="" style="shape=curlyBracket;whiteSpace=wrap;html=1;rounded=1;flipH=1;labelPosition=right;verticalLabelPosition=middle;align=left;verticalAlign=middle;" vertex="1" parent="1">
          <mxGeometry x="90" y="280" width="20" height="120" as="geometry" />
        </mxCell>
        <mxCell id="EIH9bf3S5vhwDd3wQUSE-20" value="Käyttäjän&lt;div&gt;toiminpide&lt;/div&gt;" style="shape=umlActor;verticalLabelPosition=bottom;verticalAlign=top;html=1;outlineConnect=0;" vertex="1" parent="1">
          <mxGeometry x="60" y="460" width="30" height="60" as="geometry" />
        </mxCell>
        <mxCell id="EIH9bf3S5vhwDd3wQUSE-21" value="" style="endArrow=classic;html=1;rounded=0;" edge="1" parent="1">
          <mxGeometry width="50" height="50" relative="1" as="geometry">
            <mxPoint x="150" y="489.5" as="sourcePoint" />
            <mxPoint x="210" y="489.5" as="targetPoint" />
            <Array as="points">
              <mxPoint x="180" y="489.5" />
              <mxPoint x="130" y="489.5" />
            </Array>
          </mxGeometry>
        </mxCell>
        <mxCell id="EIH9bf3S5vhwDd3wQUSE-22" value="Elementti&lt;div&gt;(element/widget&lt;/div&gt;" style="rounded=1;whiteSpace=wrap;html=1;fillColor=#FFFFFF;fontColor=#000000;strokeColor=#B09500;gradientColor=#FFFF33;" vertex="1" parent="1">
          <mxGeometry x="230" y="460" width="120" height="60" as="geometry" />
        </mxCell>
        <mxCell id="EIH9bf3S5vhwDd3wQUSE-23" value="Tapahtuma&lt;div&gt;(event&lt;/div&gt;" style="rounded=1;whiteSpace=wrap;html=1;fillColor=#FFFFFF;fontColor=#000000;strokeColor=#B09500;gradientColor=#FF9933;" vertex="1" parent="1">
          <mxGeometry x="410" y="460" width="120" height="60" as="geometry" />
        </mxCell>
        <mxCell id="EIH9bf3S5vhwDd3wQUSE-24" value="Signaali&lt;div&gt;(signal)&lt;/div&gt;" style="rounded=1;whiteSpace=wrap;html=1;gradientColor=#FF3333;" vertex="1" parent="1">
          <mxGeometry x="590" y="460" width="120" height="60" as="geometry" />
        </mxCell>
        <mxCell id="EIH9bf3S5vhwDd3wQUSE-25" value="Välittäjämerkintä&lt;div&gt;(Lambda funktio)&lt;/div&gt;" style="rounded=1;whiteSpace=wrap;html=1;fillColor=#FFFFFF;fontColor=#000000;strokeColor=#B09500;gradientColor=#007FFF;" vertex="1" parent="1">
          <mxGeometry x="780" y="460" width="120" height="60" as="geometry" />
        </mxCell>
        <mxCell id="EIH9bf3S5vhwDd3wQUSE-26" value="" style="endArrow=classic;html=1;rounded=0;" edge="1" parent="1">
          <mxGeometry width="50" height="50" relative="1" as="geometry">
            <mxPoint x="360" y="490" as="sourcePoint" />
            <mxPoint x="400" y="490" as="targetPoint" />
            <Array as="points">
              <mxPoint x="400" y="490" />
            </Array>
          </mxGeometry>
        </mxCell>
        <mxCell id="EIH9bf3S5vhwDd3wQUSE-27" value="" style="endArrow=classic;html=1;rounded=0;" edge="1" parent="1">
          <mxGeometry width="50" height="50" relative="1" as="geometry">
            <mxPoint x="540" y="489.5" as="sourcePoint" />
            <mxPoint x="580" y="489.5" as="targetPoint" />
            <Array as="points">
              <mxPoint x="560" y="489.5" />
              <mxPoint x="580" y="489.5" />
            </Array>
          </mxGeometry>
        </mxCell>
        <mxCell id="EIH9bf3S5vhwDd3wQUSE-28" value="" style="endArrow=classic;html=1;rounded=0;" edge="1" parent="1">
          <mxGeometry width="50" height="50" relative="1" as="geometry">
            <mxPoint x="730" y="489.5" as="sourcePoint" />
            <mxPoint x="770" y="489.5" as="targetPoint" />
            <Array as="points">
              <mxPoint x="720" y="489.5" />
              <mxPoint x="770" y="489.5" />
            </Array>
          </mxGeometry>
        </mxCell>
        <mxCell id="EIH9bf3S5vhwDd3wQUSE-29" value="Painaa&lt;div&gt;Enter&lt;/div&gt;" style="text;html=1;align=center;verticalAlign=middle;whiteSpace=wrap;rounded=0;" vertex="1" parent="1">
          <mxGeometry x="40" y="570" width="60" height="30" as="geometry" />
        </mxCell>
        <mxCell id="EIH9bf3S5vhwDd3wQUSE-30" value="firstNameLineEdit" style="text;html=1;align=center;verticalAlign=middle;whiteSpace=wrap;rounded=0;" vertex="1" parent="1">
          <mxGeometry x="250" y="615" width="60" height="30" as="geometry" />
        </mxCell>
        <mxCell id="EIH9bf3S5vhwDd3wQUSE-31" value="editingFinished" style="text;html=1;align=center;verticalAlign=middle;whiteSpace=wrap;rounded=0;" vertex="1" parent="1">
          <mxGeometry x="440" y="615" width="60" height="30" as="geometry" />
        </mxCell>
        <mxCell id="EIH9bf3S5vhwDd3wQUSE-32" value="Painaa&lt;div&gt;Tab&lt;/div&gt;" style="text;html=1;align=center;verticalAlign=middle;whiteSpace=wrap;rounded=0;" vertex="1" parent="1">
          <mxGeometry x="40" y="610" width="60" height="30" as="geometry" />
        </mxCell>
        <mxCell id="EIH9bf3S5vhwDd3wQUSE-33" value="Poistuu&lt;div&gt;hiirellä&lt;/div&gt;" style="text;html=1;align=center;verticalAlign=middle;whiteSpace=wrap;rounded=0;" vertex="1" parent="1">
          <mxGeometry x="40" y="650" width="60" height="30" as="geometry" />
        </mxCell>
        <mxCell id="EIH9bf3S5vhwDd3wQUSE-34" value="connect()" style="text;html=1;align=center;verticalAlign=middle;whiteSpace=wrap;rounded=0;" vertex="1" parent="1">
          <mxGeometry x="620" y="615" width="60" height="30" as="geometry" />
        </mxCell>
        <mxCell id="EIH9bf3S5vhwDd3wQUSE-35" value="self.beatifyLineEdit()" style="text;html=1;align=center;verticalAlign=middle;whiteSpace=wrap;rounded=0;" vertex="1" parent="1">
          <mxGeometry x="1000" y="615" width="60" height="30" as="geometry" />
        </mxCell>
        <mxCell id="EIH9bf3S5vhwDd3wQUSE-36" value="" style="shape=curlyBracket;whiteSpace=wrap;html=1;rounded=1;flipH=1;labelPosition=right;verticalLabelPosition=middle;align=left;verticalAlign=middle;" vertex="1" parent="1">
          <mxGeometry x="100" y="570" width="20" height="120" as="geometry" />
        </mxCell>
        <mxCell id="EIH9bf3S5vhwDd3wQUSE-37" value="Argumenttejä käyttävä metodi" style="rounded=1;whiteSpace=wrap;html=1;fillColor=#FFFFFF;fontColor=#000000;strokeColor=#B09500;gradientColor=#CCCCCC;" vertex="1" parent="1">
          <mxGeometry x="970" y="460" width="120" height="60" as="geometry" />
        </mxCell>
        <mxCell id="EIH9bf3S5vhwDd3wQUSE-38" value="" style="endArrow=classic;html=1;rounded=0;" edge="1" parent="1">
          <mxGeometry width="50" height="50" relative="1" as="geometry">
            <mxPoint x="920" y="489.5" as="sourcePoint" />
            <mxPoint x="960" y="489.5" as="targetPoint" />
            <Array as="points">
              <mxPoint x="910" y="489.5" />
              <mxPoint x="960" y="489.5" />
            </Array>
          </mxGeometry>
        </mxCell>
        <mxCell id="EIH9bf3S5vhwDd3wQUSE-39" value="lambda" style="text;html=1;align=center;verticalAlign=middle;whiteSpace=wrap;rounded=0;" vertex="1" parent="1">
          <mxGeometry x="810" y="615" width="60" height="30" as="geometry" />
        </mxCell>
      </root>
    </mxGraphModel>
  </diagram>
</mxfile>
